<svg width="640" height="640" viewBox="0 0 640 640" fill="none" xmlns="http://www.w3.org/2000/svg">
<path d="M28.1837 246.925C24.4851 243.226 18.4774 243.226 14.7786 246.925C12.9574 248.746 12 251.205 12 253.609C12 256.012 12.9199 258.471 14.7786 260.293C47.1273 292.641 47.1273 345.268 14.7786 377.67C11.08 381.369 11.08 387.376 14.7786 391.075C18.4772 394.774 24.4849 394.774 28.1837 391.075C67.9293 351.33 67.9293 286.687 28.1837 246.943L28.1837 246.925Z" fill="#EA3B3B"/>
<path d="M53.1164 419.747C56.8149 423.445 62.8226 423.445 66.5215 419.747C93.4443 392.824 108.296 357.021 108.296 318.963C108.296 280.888 93.4455 245.086 66.5215 218.179C62.8229 214.48 56.8152 214.48 53.1164 218.179C51.2952 220 50.3377 222.46 50.3377 224.863C50.3377 227.266 51.2577 229.726 53.1164 231.547C76.4717 254.902 89.3514 285.954 89.3514 318.977C89.3514 352.002 76.5098 383.037 53.154 406.408C49.4554 410.106 49.4554 416.114 53.154 419.813L53.1164 419.747Z" fill="#EA3B3B"/>
<path d="M158.086 318.963C158.086 270.131 139.048 224.283 104.54 189.774C100.841 186.075 94.8334 186.075 91.1345 189.774C89.3134 191.595 88.3559 194.055 88.3559 196.458C88.3559 198.861 89.2758 201.321 91.1345 203.142C122.094 234.101 139.105 275.236 139.105 318.981C139.105 362.727 122.095 403.86 91.1345 434.821C87.4359 438.519 87.4359 444.527 91.1345 448.226C94.8331 451.925 100.841 451.925 104.54 448.226C139.047 413.718 158.086 367.817 158.086 319.037L158.086 318.963Z" fill="#EA3B3B"/>
<path d="M611.902 246.925C615.601 243.226 621.608 243.226 625.307 246.925C627.128 248.746 628.086 251.205 628.086 253.609C628.086 256.012 627.166 258.471 625.307 260.293C592.958 292.641 592.958 345.268 625.307 377.67C629.006 381.369 629.006 387.376 625.307 391.075C621.609 394.774 615.601 394.774 611.902 391.075C572.156 351.33 572.156 286.687 611.902 246.943L611.902 246.925Z" fill="#EA3B3B"/>
<path d="M586.969 419.747C583.271 423.445 577.263 423.445 573.564 419.747C546.641 392.824 531.79 357.021 531.79 318.963C531.79 280.888 546.64 245.086 573.564 218.179C577.263 214.48 583.27 214.48 586.969 218.179C588.79 220 589.748 222.46 589.748 224.863C589.748 227.266 588.828 229.726 586.969 231.547C563.614 254.902 550.734 285.954 550.734 318.977C550.734 352.002 563.576 383.037 586.932 406.408C590.63 410.106 590.63 416.114 586.932 419.813L586.969 419.747Z" fill="#EA3B3B"/>
<path d="M482 318.963C482 270.131 501.037 224.283 535.546 189.774C539.245 186.075 545.252 186.075 548.951 189.774C550.772 191.595 551.73 194.055 551.73 196.458C551.73 198.861 550.81 201.321 548.951 203.142C517.992 234.101 500.98 275.236 500.98 318.981C500.98 362.727 517.99 403.86 548.951 434.821C552.65 438.519 552.65 444.527 548.951 448.226C545.253 451.925 539.245 451.925 535.546 448.226C501.039 413.718 482 367.817 482 319.037L482 318.963Z" fill="#EA3B3B"/>
<path d="M430.1 170H210C196.2 170 185 181.2 185 195V444C185 457.8 196.2 469 210 469H430.1C443.9 469 455.1 457.8 455.1 444V195C455.1 181.2 443.9 170 430.1 170ZM320.1 410.6H246.7C236.6 410.6 228.4 402.4 228.4 392.3C228.4 382.2 236.6 374 246.7 374H320.1C330.2 374 338.4 382.2 338.4 392.3C338.4 402.4 330.2 410.6 320.1 410.6ZM393.4 337.3H246.7C236.6 337.3 228.4 329.1 228.4 319C228.4 308.9 236.6 300.7 246.7 300.7H393.5C403.6 300.7 411.8 308.9 411.8 319C411.8 329 403.6 337.3 393.4 337.3ZM393.4 263.9H246.7C236.6 263.9 228.4 255.7 228.4 245.6C228.4 235.5 236.6 227.3 246.7 227.3H393.5C403.6 227.3 411.8 235.5 411.8 245.6C411.8 255.7 403.6 263.9 393.4 263.9Z" fill="#EA3B3B"/>
</svg>
